<svg width="124" height="124" viewBox="0 0 124 124" fill="none" xmlns="http://www.w3.org/2000/svg">
<path d="M40.2996 97.6477C40.2996 98.6811 40.0413 99.7144 39.5246 100.489C38.4913 102.039 36.1663 106.948 30.2246 109.531C28.4163 110.306 26.6079 110.823 24.7996 111.081C22.2163 111.339 19.6329 111.856 17.3079 111.339C14.7246 111.081 12.3996 109.789 10.8496 107.723C12.6579 107.723 14.4663 106.431 16.0163 105.398C17.5663 104.364 19.1163 103.331 19.8913 101.781C20.6663 100.489 21.1829 98.9394 21.6996 97.6477C23.5079 93.2561 27.6413 89.8977 32.2913 89.3811C33.8413 89.1227 35.3913 89.1227 36.6829 89.8977C39.5246 90.6727 40.5579 94.2894 40.2996 97.6477Z" fill="#B3B6BB"/>
<path d="M51.9254 81.6359L47.2754 76.9859C46.5004 76.2109 46.5004 74.9193 47.2754 74.4026L113.925 8.01094C115.992 5.94427 119.35 5.94427 121.159 8.01094C123.225 10.0776 123.225 13.4359 121.159 15.2443L54.7671 81.6359C53.9921 82.4109 52.7004 82.4109 51.9254 81.6359ZM45.4671 88.3526L41.0754 83.9609C40.3004 83.1859 40.3004 81.8943 41.0754 81.1193C41.8504 80.3443 43.1421 80.3443 43.9171 81.1193L48.3087 85.5109C49.0837 86.2859 49.0837 87.5776 48.3087 88.3526C47.5337 89.1276 46.2421 89.1276 45.4671 88.3526Z" fill="#B3B6BB"/>
<path d="M106.692 52.9616C104.884 49.3449 101.525 47.2783 97.3919 45.7283L58.1252 84.9949C56.8336 86.2866 55.2836 86.8033 53.4752 86.8033C53.4752 87.8366 53.2169 88.6116 52.7002 89.6449C55.2836 91.9699 56.3169 95.0699 55.0252 97.9116C53.4752 101.528 48.5669 102.82 44.1752 101.012C43.9169 101.012 43.9169 100.753 43.6586 100.753C43.6586 100.753 43.6586 101.012 43.4002 101.012L43.1419 101.27C42.1086 103.078 39.5252 107.47 34.3586 110.312C42.1086 114.187 50.3752 117.028 56.8336 117.287C59.9336 117.287 62.7752 117.287 65.8752 117.028C70.2669 116.77 74.6586 116.512 78.7919 115.22C81.3752 114.445 83.7002 113.153 86.0252 111.862C92.2252 108.245 98.1669 104.112 102.3 98.4283C108.5 89.3866 109.534 77.7616 109.792 66.6533C109.792 64.3283 109.792 61.7449 109.275 59.4199C109.017 57.0949 107.984 55.0283 106.692 52.9616ZM78.5336 103.595C74.1419 105.403 69.2336 103.595 67.9419 99.9783C66.6502 96.3616 68.9752 91.9699 73.3669 90.1616C77.7586 88.3533 82.6669 90.1616 83.9586 93.7783C85.5086 97.6533 82.9252 102.045 78.5336 103.595ZM99.9752 77.7616C97.1336 81.6366 92.4836 82.9283 89.1252 80.8616C85.7669 78.5366 85.5086 73.6283 88.3502 69.7533C91.1919 65.8783 95.8419 64.5866 99.2002 66.6533C102.3 68.7199 102.817 73.6283 99.9752 77.7616ZM16.2752 98.9449C17.0502 98.4283 17.5669 97.9116 17.8252 97.3949C18.0836 97.1366 18.3419 96.3616 18.6002 95.8449C18.8586 95.3283 18.8586 94.8116 19.1169 94.2949C19.8919 92.4866 20.9252 90.9366 21.9586 89.6449C19.8919 89.1283 18.0836 87.8366 16.7919 85.7699C13.9502 81.8949 14.4669 76.7283 17.5669 74.6616C20.6669 72.3366 25.5752 73.6283 28.4169 77.5033C29.9669 79.5699 30.4836 82.1533 30.2252 84.2199C31.0002 83.9616 31.5169 83.9616 32.2919 83.7033C33.0669 83.7033 33.8419 83.4449 34.3586 83.4449H35.3919C35.3919 82.9283 35.1336 82.4116 35.1336 81.8949C35.1336 80.0866 35.9086 78.5366 36.9419 77.2449L37.2002 76.9866C38.4919 75.6949 40.0419 75.1783 41.8502 74.9199C41.8502 73.1116 42.6252 71.5616 43.6586 70.2699L75.4336 38.4949C73.3669 37.9783 71.3002 37.2033 70.5252 35.3949C70.2669 34.6199 70.2669 33.8449 70.0086 33.0699C69.7502 29.4533 70.5252 25.8366 70.2669 22.2199C70.7836 19.3783 69.7502 15.5033 67.1669 13.1783C65.1002 11.3699 62.0002 10.5949 59.4169 10.0783C56.3169 9.30327 53.2169 8.7866 50.1169 8.52827C44.6919 8.26994 39.2669 9.81994 34.1002 11.6283C31.0002 12.4033 27.9002 13.6949 25.0586 15.2449C19.8919 18.0866 14.9836 22.2199 11.3669 26.8699C4.13357 36.4283 0.775234 49.0866 1.2919 61.2283C2.0669 73.3699 4.90857 86.2866 12.9169 95.5866L16.2752 98.9449ZM48.5669 28.6783C53.9919 28.6783 58.1252 33.0699 58.1252 38.2366C58.1252 43.6616 53.7336 47.7949 48.5669 47.7949C43.1419 47.7949 39.0086 43.4033 39.0086 38.2366C38.7502 33.0699 43.1419 28.6783 48.5669 28.6783Z" fill="#525763"/>
<path d="M50.6331 50.3755C58.1948 50.3755 64.3247 44.2456 64.3247 36.6839C64.3247 29.1222 58.1948 22.9922 50.6331 22.9922C43.0714 22.9922 36.9414 29.1222 36.9414 36.6839C36.9414 44.2456 43.0714 50.3755 50.6331 50.3755Z" fill="#B3B6BB"/>
<path d="M93.7753 84.7323C99.9103 84.7323 104.884 79.7589 104.884 73.624C104.884 67.489 99.9103 62.5156 93.7753 62.5156C87.6404 62.5156 82.667 67.489 82.667 73.624C82.667 79.7589 87.6404 84.7323 93.7753 84.7323Z" fill="#B3B6BB"/>
<path d="M21.9579 63.5526C28.0929 63.5526 33.0663 58.5792 33.0663 52.4443C33.0663 46.3093 28.0929 41.3359 21.9579 41.3359C15.823 41.3359 10.8496 46.3093 10.8496 52.4443C10.8496 58.5792 15.823 63.5526 21.9579 63.5526Z" fill="#B3B6BB"/>
<path d="M75.1752 107.723C81.1675 107.723 86.0252 102.866 86.0252 96.8734C86.0252 90.8811 81.1675 86.0234 75.1752 86.0234C69.1829 86.0234 64.3252 90.8811 64.3252 96.8734C64.3252 102.866 69.1829 107.723 75.1752 107.723Z" fill="#B3B6BB"/>
<path d="M21.9581 89.1214C26.809 89.1214 30.7415 85.1889 30.7415 80.338C30.7415 75.4871 26.809 71.5547 21.9581 71.5547C17.1072 71.5547 13.1748 75.4871 13.1748 80.338C13.1748 85.1889 17.1072 89.1214 21.9581 89.1214Z" fill="#B3B6BB"/>
<path d="M56.0589 88.8672C57.6089 90.1588 58.6422 91.7088 59.1589 93.5172C59.6755 95.3255 59.6755 97.6505 58.6422 99.2005C58.1255 100.234 57.3505 101.009 56.3172 101.784C52.4422 104.625 47.2755 105.4 42.3672 106.434C44.4339 102.559 44.6922 97.9088 43.1422 93.7755C46.7589 93.5172 50.3755 91.7088 52.7005 89.1255C52.9589 88.6088 53.4755 88.3505 53.9922 88.0921C54.7672 87.8338 55.5422 88.3505 56.0589 88.8672Z" fill="#B3B6BB"/>
</svg>
