<svg width="36" height="30" viewBox="0 0 42 36" fill="none" xmlns="http://www.w3.org/2000/svg">
<g clip-path="url(#clip0_7656_92787)">
<path d="M6.82684 22.8612C7.9009 25.8774 7.34554 25.5703 10.5659 25.0951C11.1058 26.0986 11.7562 27.0387 12.5033 27.8996C10.9245 30.693 10.7915 30.0761 13.2617 32.1759C13.5576 32.4268 14.0473 32.4355 14.3507 32.1957L16.0072 30.8857C16.9652 31.4814 17.9986 31.9792 19.098 32.3574L19.121 34.4585C19.1239 34.8452 19.4405 35.218 19.8216 35.2883C22.9798 35.8692 22.4373 36.193 23.6307 33.1914C24.7451 33.2283 25.8441 33.1374 26.914 32.9387C28.1849 34.7232 28.6763 35.9674 28.6763 35.9674H33.3031C28.848 26.1811 19.7615 21.369 8.93737 20.2849C3.13877 19.7047 -1.27344 20.4041 -1.27344 20.4041C2.13337 20.4866 5.17558 20.8575 7.88841 21.4348L7.19808 21.8409C6.86442 22.0381 6.69811 22.4978 6.82684 22.8612ZM13.4784 23.0531C17.7819 24.6647 21.3501 26.9661 24.109 29.674C19.4711 29.6961 15.3899 26.9511 13.4784 23.0531Z" fill="currentColor"/>
<path d="M-0.0390625 18.9284C10.7305 18.0895 22.1347 19.8696 29.7851 27.464C32.8191 30.4361 34.7501 34.0476 35.2885 35.9678H40.1889C39.4143 33.7622 38.4289 31.8218 37.2779 30.1157C39.1806 27.8958 39.1984 28.4641 37.2008 25.9584C37.7999 25.0028 38.2985 23.9746 38.6783 22.8802L40.7888 22.8572C41.1763 22.8533 41.5509 22.5393 41.621 22.1596C42.204 19.0152 42.5303 19.5536 39.5157 18.3666C39.5548 17.2098 39.4564 16.0712 39.2419 14.9661L41.0611 13.8937C41.3941 13.6962 41.5619 13.2381 41.4325 12.874C40.3591 9.85911 40.9124 10.1636 37.6942 10.6387C37.1527 9.63624 36.5033 8.69571 35.7568 7.83456L36.7978 5.99442C36.9885 5.65772 36.9022 5.1769 36.6073 4.92685C34.1631 2.84972 34.7956 2.83936 32.2531 4.84863C31.2933 4.25334 30.2609 3.75439 29.1623 3.37768L29.1392 1.27673C29.1356 0.889796 28.8182 0.517106 28.4386 0.447048C25.2795 -0.133872 25.8205 -0.458521 24.6291 2.54256C23.4686 2.505 22.3247 2.60277 21.2149 2.81735L20.1369 1.00336C19.9403 0.672112 19.4778 0.50558 19.1137 0.635077C16.0858 1.7042 16.3935 1.15151 16.8699 4.35758C15.8632 4.89577 14.9184 5.54273 14.0542 6.28682L12.2054 5.25007C11.8681 5.0623 11.3851 5.14699 11.1335 5.44069C9.04841 7.87613 9.03827 7.24496 11.0556 9.77688C10.4579 10.7318 9.95863 11.761 9.5792 12.8544L7.46853 12.8774C7.08078 12.8825 6.70642 13.1974 6.63608 13.5762C6.05094 16.7209 5.72547 16.1815 8.74024 17.368C8.73204 17.628 8.73204 17.8884 8.73803 18.1467C3.59998 18.2075 -0.0390625 18.9284 -0.0390625 18.9284ZM23.1651 6.09788C33.9604 5.36247 39.8344 17.6449 33.1777 25.4977C27.5145 20.5849 19.7827 18.5964 12.2803 18.2151C12.0761 12.1039 16.7243 6.62157 23.1651 6.09788Z" fill="currentColor"/>
<path d="M31.962 9.77344V23.8242C30.9457 23.0789 29.8427 22.3828 28.6641 21.7649V9.77344H31.962Z" fill="currentColor"/>
<path d="M27.8364 11.6408V21.3479C26.6328 20.7578 25.6664 20.3684 24.5391 19.9614V11.6406H27.8364V11.6408Z" fill="currentColor"/>
<path d="M23.7192 13.8359V19.6752C22.2346 19.1883 21.2633 18.9623 20.4219 18.7598V13.8359H23.7192Z" fill="currentColor"/>
<path d="M19.5935 15.5V18.5838C18.3195 18.3186 17.4037 18.1815 16.2969 18.0291V15.5001H19.5935V15.5Z" fill="currentColor"/>
<path d="M29.0302 35.4321C28.3821 34.0485 27.4927 32.8233 27.1562 32.3503C25.5057 32.6559 24.7142 32.6916 23.2737 32.6449C22.3415 34.9911 22.374 35.1377 22.0484 35.1377C21.6898 35.1377 21.0024 34.9605 19.9223 34.762C19.7935 34.7383 19.662 34.5817 19.6604 34.4511L19.6331 31.9743C18.22 31.4887 17.4608 31.1568 15.9731 30.2321L14.0193 31.7766C13.9734 31.8127 13.9003 31.835 13.8227 31.835C13.7405 31.835 13.6612 31.8099 13.6132 31.7689C13.3386 31.5353 13.0951 31.3349 12.8829 31.1597C12.3696 30.7366 11.9272 30.3712 11.896 30.2088C11.8568 30.0016 12.3022 29.3479 13.1588 27.8334C12.1557 26.6777 11.6703 26.0114 10.8633 24.5109C9.28211 24.7434 8.76003 24.8623 8.3871 24.8623C7.99129 24.8623 8.05786 24.7091 7.3358 22.6819C7.29237 22.5589 7.36272 22.3657 7.47351 22.2995L9.34894 21.1972C7.94551 20.8985 7.4986 20.7988 6.66406 20.6484C17.6348 21.2054 27.5564 25.4912 32.4599 35.4321H29.0302ZM12.4086 22.0792L13.0006 23.2864C15.0609 27.4904 19.4014 30.2073 24.0562 30.2073L25.4131 30.2015C21.7555 26.6101 19.1609 24.6079 12.4086 22.0792Z" fill="currentColor"/>
<path d="M39.4276 35.4301C38.6125 33.3004 37.7426 31.7506 36.6105 30.0734C36.7413 29.9209 38.1751 28.3486 38.1708 28.1489C38.1657 27.9214 37.5414 27.2347 36.5507 25.9918C37.1343 25.0602 37.6848 24.1218 38.1761 22.7028L38.2995 22.3473L40.7876 22.3196C40.9185 22.3186 41.0753 22.1874 41.0989 22.0589C41.3187 20.8744 41.5585 19.968 41.4511 19.7793C41.3463 19.5951 40.6176 19.3688 38.9727 18.7213C39.0268 17.0982 38.9572 16.2816 38.6486 14.6945L40.7941 13.4311C40.9052 13.3647 40.9754 13.1717 40.9318 13.0488C40.1986 10.9883 40.2719 10.8679 39.8791 10.8679C39.5063 10.8679 38.9987 10.9834 37.4053 11.2188C37.1154 10.6818 36.5177 9.51955 35.3568 8.1812L35.1095 7.89683L36.3354 5.7288C36.3997 5.61536 36.3642 5.41425 36.2645 5.33021C35.3375 4.54261 34.6738 3.88542 34.4571 3.88542C34.2914 3.88542 33.8468 4.24801 33.3326 4.66732C32.823 5.08235 32.74 5.14684 32.2956 5.49765C30.7545 4.54197 30.0014 4.22586 28.6359 3.75657L28.6083 1.27956C28.6067 1.14838 28.4751 0.993117 28.3463 0.969419C27.9696 0.899621 27.6455 0.834094 27.3644 0.777504C26.8371 0.670281 26.4554 0.59375 26.2192 0.59375C25.9988 0.59375 25.9529 0.593749 25.4735 1.85569C25.3759 2.11132 25.2657 2.40398 25.134 2.73627L24.9942 3.08578C23.3496 3.03165 22.5277 3.10546 20.9504 3.40991C19.6779 1.26778 19.6312 1.01798 19.2992 1.13517C18.1472 1.54192 17.25 1.78434 17.1403 1.97068C17.025 2.16726 17.2425 3.17682 17.4065 4.27689L17.4614 4.64815C15.9329 5.4645 15.2635 5.95231 14.1262 6.93325L11.9476 5.71287C11.9113 5.69228 11.8625 5.68115 11.8084 5.68115C11.5577 5.68115 11.5437 5.7973 10.8898 6.53479C10.4659 7.01353 10.0996 7.42611 10.0975 7.58384C10.0959 7.80527 10.6959 8.45613 11.7175 9.73736C10.7579 11.2674 10.4385 12.025 9.96783 13.3806L7.47995 13.4081C7.34966 13.41 7.19297 13.5427 7.16827 13.6706C6.94786 14.857 6.70822 15.761 6.81549 15.9487C6.92797 16.146 7.872 16.4463 9.29467 17.0064C9.27243 17.6808 9.27009 17.6892 9.28504 18.3921C10.1269 18.4648 10.9527 18.5583 11.7641 18.6717C11.2876 4.42477 29.8311 0.808713 35.3583 12.6591C37.3232 16.8734 37.0028 21.817 33.2418 26.254C27.3699 21.1595 20.0532 19.1444 12.2754 18.7466C19.6446 19.8657 25.746 22.6921 30.1692 27.0828C33.0147 29.8703 34.9723 33.2631 35.6904 35.4304H39.4276V35.4301Z" fill="currentColor"/>
<path d="M31.4283 10.3047H29.2031V21.4416C29.962 21.8521 30.7063 22.303 31.4283 22.7901V10.3047Z" fill="currentColor"/>
<path d="M27.3027 12.1719H25.0781V19.5861C25.8978 19.8892 26.5962 20.1758 27.3027 20.4997V12.1719Z" fill="currentColor"/>
<path d="M23.1856 14.3672H20.9609V18.3369C21.5794 18.4865 22.2749 18.6613 23.1856 18.9418V14.3672Z" fill="currentColor"/>
<path d="M19.0606 16.0312H16.8359V17.5615C17.5315 17.6594 18.2253 17.767 19.0606 17.9284V16.0312Z" fill="currentColor"/>
</g>
<defs>
<clipPath id="clip0_7656_92787">
<rect width="36" height="30" fill="white"/>
</clipPath>
</defs>
</svg>
